<svg xmlns="http://www.w3.org/2000/svg" width="191" height="214" viewBox="0 0 191 214">
  <g id="Group_6" data-name="Group 6" transform="translate(-1202 -303.708)">
    <g id="Group_5" data-name="Group 5" transform="translate(1202 303.708)">
      <g id="Group_1" data-name="Group 1" transform="translate(0 5.098)">
        <g id="Path_2" data-name="Path 2" fill="#fff">
          <path d="M 178.7199401855469 178.39013671875 L 2.499994993209839 178.39013671875 L 2.499994993209839 2.50001072883606 L 141.3225250244141 2.50001072883606 L 178.7199401855469 2.50001072883606 L 178.7199401855469 178.39013671875 Z" stroke="none"/>
          <path d="M 5 5 L 5 175.8901214599609 L 176.2199401855469 175.8901214599609 L 176.2199401855469 5 L 5 5 M 0 0 L 181.2199401855469 0 L 181.2199401855469 180.8901214599609 L 0 180.8901214599609 L 0 0 Z" stroke="none" fill="#232dff"/>
        </g>
        <g id="Path_1" data-name="Path 1" fill="#e4b6a2">
          <path d="M 178.6066131591797 178.5650024414062 L 144.6761627197266 178.5650024414062 L 6.036537170410156 178.5650024414062 L 178.6066131591797 6.034571170806885 L 178.6066131591797 178.5650024414062 Z" stroke="none"/>
          <path d="M 176.1066131591797 12.06912231445312 L 12.07304382324219 176.0650024414062 L 176.1066131591797 176.0650024414062 L 176.1066131591797 12.06912231445312 M 181.1066131591797 0 L 181.1066131591797 181.0650024414062 L 0 181.0650024414062 L 181.1066131591797 0 Z" stroke="none" fill="#232dff"/>
        </g>
      </g>
      <g id="Group_2" data-name="Group 2" transform="translate(16 0)">
        <text id="j" transform="translate(0 111.292)" fill="#232dff" font-size="85" font-family="Kremlin"><tspan x="0" y="0">j</tspan></text>
        <text id="j-2" data-name="j" transform="translate(68.431 18) rotate(-180)" fill="#232dff" font-size="84" font-family="Kremlin"><tspan x="0" y="0">j</tspan></text>
      </g>
      <text id="JASMIN" transform="translate(41 123)" fill="#fff" font-size="40" font-family="ZenKurenaido-Regular, Zen Kurenaido"><tspan x="0" y="46">JASMIN</tspan></text>
    </g>
  </g>
</svg>
