<svg xmlns="http://www.w3.org/2000/svg" xmlns:xlink="http://www.w3.org/1999/xlink" width="1920" height="1080" viewBox="0 0 1920 1080">
  <defs>
    <clipPath id="clip-Web_1920_2">
      <rect width="1920" height="1080"/>
    </clipPath>
  </defs>
  <g id="Web_1920_2" data-name="Web 1920 – 2" clip-path="url(#clip-Web_1920_2)">
    <rect width="1920" height="1080" fill="#fff"/>
    <g id="Group_4" data-name="Group 4">
      <g id="Polygon_1" data-name="Polygon 1" transform="translate(270.635 365)" fill="#e4b6a2">
        <path d="M 253.0524597167969 320.5 L 86.6766357421875 320.5 C 83.74655151367188 320.5 80.85509490966797 320.0372924804688 78.08259582519531 319.124755859375 C 75.37281799316406 318.23291015625 72.82627868652344 316.9288024902344 70.51359558105469 315.2487182617188 C 68.20091247558594 313.5686340332031 66.17354583740234 311.5498657226562 64.48773193359375 309.2484741210938 C 62.76286697387695 306.893798828125 61.42909240722656 304.2869873046875 60.52341079711914 301.5003967285156 L 9.11663818359375 143.3363952636719 C 8.210683822631836 140.5490264892578 7.756957054138184 137.6553497314453 7.76804780960083 134.7357635498047 C 7.778911590576172 131.8822631835938 8.232457160949707 129.0566253662109 9.116093635559082 126.3373031616211 C 9.999729156494141 123.618034362793 11.29382038116455 121.0654907226562 12.96241092681885 118.7506713867188 C 14.66968441009521 116.3822631835938 16.73773002624512 114.3080368041992 19.10913848876953 112.5856704711914 L 153.7038269042969 14.82767009735107 C 156.0741424560547 13.10603332519531 158.6850433349609 11.78135204315186 161.4640502929688 10.89039707183838 C 164.1801910400391 10.01957893371582 167.0065002441406 9.578033447265625 169.8645477294922 9.578033447265625 C 172.7225952148438 9.578033447265625 175.5489044189453 10.01957893371582 178.2650451660156 10.89039707183838 C 181.0440521240234 11.78135204315186 183.6549530029297 13.10603332519531 186.0252685546875 14.82767009735107 L 320.6199645996094 112.5856704711914 C 322.9914245605469 114.3080368041992 325.0594482421875 116.3822631835938 326.7666931152344 118.7506713867188 C 328.4352722167969 121.0654907226562 329.7293701171875 123.618034362793 330.6130065917969 126.3373031616211 C 331.4966735839844 129.0566253662109 331.9501953125 131.8822631835938 331.9610595703125 134.7357635498047 C 331.9721374511719 137.6553497314453 331.5184020996094 140.5490264892578 330.6124572753906 143.3363952636719 L 279.2057189941406 301.5003967285156 C 278.300048828125 304.2869873046875 276.9662170410156 306.893798828125 275.2414245605469 309.2484741210938 C 273.5556030273438 311.5498657226562 271.5281982421875 313.5686340332031 269.2155456542969 315.2487182617188 C 266.9028625488281 316.9288024902344 264.3562622070312 318.23291015625 261.6465148925781 319.124755859375 C 258.8739929199219 320.0372924804688 255.9825439453125 320.5 253.0524597167969 320.5 Z" stroke="none"/>
        <path d="M 169.8645477294922 12.07803344726562 C 167.2659149169922 12.07803344726562 164.6963653564453 12.47940063476562 162.2272796630859 13.27099609375 C 159.7015533447266 14.08074951171875 157.3281402587891 15.2850341796875 155.1729583740234 16.85040283203125 L 20.57827758789062 114.6083984375 C 18.42214965820312 116.1744384765625 16.54214477539062 118.0599365234375 14.99044799804688 120.2125854492188 C 13.4736328125 122.3168487548828 12.29714965820312 124.6374359130859 11.49368286132812 127.1099395751953 C 10.69027709960938 129.5823974609375 10.27792358398438 132.1513061523438 10.26803588867188 134.7452545166016 C 10.25796508789062 137.3988037109375 10.67047119140625 140.0293121337891 11.49417114257812 142.5636291503906 L 62.90097045898438 300.7276306152344 C 63.72445678710938 303.2612609863281 64.93685913085938 305.6310424804688 66.5045166015625 307.7711181640625 C 68.0369873046875 309.8632202148438 69.88018798828125 311.6985473632812 71.98297119140625 313.22607421875 C 74.085693359375 314.753662109375 76.40087890625 315.9393005371094 78.86419677734375 316.7500915527344 C 81.384033203125 317.5794372558594 84.01254272460938 318 86.6766357421875 318 L 253.0524597167969 318 C 255.716552734375 318 258.3450317382812 317.5794372558594 260.8649291992188 316.7500915527344 C 263.3282470703125 315.9393005371094 265.6434020996094 314.753662109375 267.7461547851562 313.22607421875 C 269.8489074707031 311.6985473632812 271.692138671875 309.8632202148438 273.224609375 307.7711181640625 C 274.7922668457031 305.6310424804688 276.0046997070312 303.2612609863281 276.8281860351562 300.7276306152344 L 328.2349243164062 142.5636749267578 C 329.0586242675781 140.0293121337891 329.47119140625 137.3988037109375 329.4610900878906 134.7452545166016 C 329.4512329101562 132.1513061523438 329.038818359375 129.5823974609375 328.2354125976562 127.1099395751953 C 327.4319458007812 124.6374359130859 326.2554931640625 122.3168487548828 324.7386474609375 120.2125854492188 C 323.18701171875 118.0599822998047 321.3069458007812 116.1744384765625 319.1508178710938 114.6084442138672 L 184.5561370849609 16.850341796875 C 182.4009552001953 15.2850341796875 180.0275421142578 14.08074951171875 177.5018157958984 13.27099609375 C 175.0327301025391 12.47940063476562 172.4631805419922 12.07803344726562 169.8645477294922 12.07803344726562 M 169.8645477294922 7.078033447265625 C 176.0512237548828 7.078033447265625 182.2379150390625 8.986968994140625 187.4944610595703 12.80484008789062 L 322.0891418457031 110.5628967285156 C 332.6070861816406 118.2022094726562 337.0082397460938 131.7463073730469 332.9900512695312 144.1091766357422 L 281.5833129882812 302.2731628417969 C 277.5662231445312 314.6324768066406 266.0482177734375 323 253.0524597167969 323 L 86.6766357421875 323 C 73.68087768554688 323 62.16287231445312 314.6324768066406 58.14581298828125 302.2731628417969 L 6.739044189453125 144.1091766357422 C 2.720855712890625 131.7463073730469 7.122039794921875 118.2022094726562 17.63995361328125 110.5628967285156 L 152.2346343994141 12.80484008789062 C 157.4911804199219 8.986968994140625 163.6778717041016 7.078033447265625 169.8645477294922 7.078033447265625 Z" stroke="none" fill="#232dff"/>
      </g>
      <g id="Group_3" data-name="Group 3" transform="translate(-640.162 59.944)">
        <text id="j" transform="translate(998.162 578)" fill="#232dff" font-size="178" font-family="Kremlin"><tspan x="0" y="0">j</tspan></text>
        <text id="j-2" data-name="j" transform="translate(1141.662 382.112) rotate(-180)" fill="#232dff" font-size="177" font-family="Kremlin"><tspan x="0" y="0">j</tspan></text>
      </g>
    </g>
  </g>
</svg>
